<?xml version="1.0" encoding="UTF-8"?>
<svg xmlns="http://www.w3.org/2000/svg" width="72" height="24" viewBox="0 0 72 24" shape-rendering="crispEdges">
  <rect x="12" y="3" width="9" height="1" fill="#3d2010"/>
  <rect x="10" y="4" width="3" height="1" fill="#3d2010"/>
  <rect x="13" y="4" width="1" height="1" fill="#50310c"/>
  <rect x="14" y="4" width="1" height="1" fill="#ad7e23"/>
  <rect x="15" y="4" width="1" height="1" fill="#cc952b"/>
  <rect x="16" y="4" width="2" height="1" fill="#ab7c20"/>
  <rect x="18" y="4" width="1" height="1" fill="#b08024"/>
  <rect x="19" y="4" width="1" height="1" fill="#9e631d"/>
  <rect x="20" y="4" width="1" height="1" fill="#221507"/>
  <rect x="21" y="4" width="7" height="1" fill="#3d2010"/>
  <rect x="9" y="5" width="2" height="1" fill="#3d2010"/>
  <rect x="11" y="5" width="1" height="1" fill="#8e6331"/>
  <rect x="12" y="5" width="1" height="1" fill="#bd9039"/>
  <rect x="13" y="5" width="1" height="1" fill="#daab65"/>
  <rect x="14" y="5" width="1" height="1" fill="#d8a540"/>
  <rect x="15" y="5" width="1" height="1" fill="#e1ab59"/>
  <rect x="16" y="5" width="1" height="1" fill="#ce9f46"/>
  <rect x="17" y="5" width="1" height="1" fill="#ddc7ac"/>
  <rect x="18" y="5" width="1" height="1" fill="#dfa535"/>
  <rect x="19" y="5" width="1" height="1" fill="#bd8a29"/>
  <rect x="20" y="5" width="1" height="1" fill="#b8892d"/>
  <rect x="21" y="5" width="1" height="1" fill="#a97d29"/>
  <rect x="22" y="5" width="1" height="1" fill="#30200c"/>
  <rect x="23" y="5" width="1" height="1" fill="#3d2010"/>
  <rect x="24" y="5" width="1" height="1" fill="#ab8336"/>
  <rect x="25" y="5" width="1" height="1" fill="#cc9c3f"/>
  <rect x="26" y="5" width="1" height="1" fill="#dac4ab"/>
  <rect x="27" y="5" width="2" height="1" fill="#3d2010"/>
  <rect x="8" y="6" width="2" height="1" fill="#3d2010"/>
  <rect x="10" y="6" width="1" height="1" fill="#9b6c35"/>
  <rect x="11" y="6" width="1" height="1" fill="#c1953f"/>
  <rect x="12" y="6" width="1" height="1" fill="#c69a47"/>
  <rect x="13" y="6" width="1" height="1" fill="#dead64"/>
  <rect x="14" y="6" width="1" height="1" fill="#e1ad49"/>
  <rect x="15" y="6" width="1" height="1" fill="#e1ab5a"/>
  <rect x="16" y="6" width="1" height="1" fill="#e0ac47"/>
  <rect x="17" y="6" width="1" height="1" fill="#e1ab59"/>
  <rect x="18" y="6" width="1" height="1" fill="#e2a447"/>
  <rect x="19" y="6" width="1" height="1" fill="#dfab47"/>
  <rect x="20" y="6" width="1" height="1" fill="#e1a449"/>
  <rect x="21" y="6" width="1" height="1" fill="#cd9935"/>
  <rect x="22" y="6" width="1" height="1" fill="#b98d36"/>
  <rect x="23" y="6" width="1" height="1" fill="#b18530"/>
  <rect x="24" y="6" width="1" height="1" fill="#d7a458"/>
  <rect x="25" y="6" width="1" height="1" fill="#e1ad60"/>
  <rect x="26" y="6" width="1" height="1" fill="#d9ae5b"/>
  <rect x="27" y="6" width="1" height="1" fill="#dec7ab"/>
  <rect x="28" y="6" width="2" height="1" fill="#3d2010"/>
  <rect x="8" y="7" width="1" height="1" fill="#3d2010"/>
  <rect x="9" y="7" width="1" height="1" fill="#7a562d"/>
  <rect x="10" y="7" width="1" height="1" fill="#cfa554"/>
  <rect x="11" y="7" width="1" height="1" fill="#dcad67"/>
  <rect x="12" y="7" width="1" height="1" fill="#e2a54a"/>
  <rect x="13" y="7" width="1" height="1" fill="#e1af50"/>
  <rect x="14" y="7" width="3" height="1" fill="#e1a42f"/>
  <rect x="17" y="7" width="1" height="1" fill="#e1a531"/>
  <rect x="18" y="7" width="1" height="1" fill="#e1b45c"/>
  <rect x="19" y="7" width="1" height="1" fill="#e0a93f"/>
  <rect x="20" y="7" width="1" height="1" fill="#e2a64b"/>
  <rect x="21" y="7" width="1" height="1" fill="#d2a141"/>
  <rect x="22" y="7" width="1" height="1" fill="#dfa34a"/>
  <rect x="23" y="7" width="1" height="1" fill="#e1ad48"/>
  <rect x="24" y="7" width="1" height="1" fill="#e1a954"/>
  <rect x="25" y="7" width="2" height="1" fill="#000000"/>
  <rect x="27" y="7" width="1" height="1" fill="#e1a42f"/>
  <rect x="28" y="7" width="1" height="1" fill="#d1ae7a"/>
  <rect x="29" y="7" width="2" height="1" fill="#3d2010"/>
  <rect x="8" y="8" width="1" height="1" fill="#3d2010"/>
  <rect x="9" y="8" width="1" height="1" fill="#a57937"/>
  <rect x="10" y="8" width="1" height="1" fill="#daa556"/>
  <rect x="11" y="8" width="1" height="1" fill="#e1a64e"/>
  <rect x="12" y="8" width="16" height="1" fill="#e1a42f"/>
  <rect x="28" y="8" width="1" height="1" fill="#dfa043"/>
  <rect x="29" y="8" width="1" height="1" fill="#d1c4b5"/>
  <rect x="30" y="8" width="2" height="1" fill="#3d2010"/>
  <rect x="8" y="9" width="1" height="1" fill="#3d2010"/>
  <rect x="9" y="9" width="1" height="1" fill="#8a6130"/>
  <rect x="10" y="9" width="1" height="1" fill="#e1af50"/>
  <rect x="11" y="9" width="3" height="1" fill="#e1a42f"/>
  <rect x="14" y="9" width="1" height="1" fill="#e1a532"/>
  <rect x="15" y="9" width="1" height="1" fill="#e1a633"/>
  <rect x="16" y="9" width="2" height="1" fill="#e1a532"/>
  <rect x="18" y="9" width="4" height="1" fill="#e1a42f"/>
  <rect x="22" y="9" width="1" height="1" fill="#e1a634"/>
  <rect x="23" y="9" width="1" height="1" fill="#e1a430"/>
  <rect x="24" y="9" width="1" height="1" fill="#e1a635"/>
  <rect x="25" y="9" width="1" height="1" fill="#e0a533"/>
  <rect x="26" y="9" width="3" height="1" fill="#dea433"/>
  <rect x="29" y="9" width="1" height="1" fill="#dca656"/>
  <rect x="30" y="9" width="1" height="1" fill="#d8af72"/>
  <rect x="31" y="9" width="2" height="1" fill="#3d2010"/>
  <rect x="8" y="10" width="1" height="1" fill="#3d2010"/>
  <rect x="9" y="10" width="1" height="1" fill="#764d1d"/>
  <rect x="10" y="10" width="1" height="1" fill="#d39b30"/>
  <rect x="11" y="10" width="3" height="1" fill="#e1a42f"/>
  <rect x="14" y="10" width="4" height="1" fill="#d0992e"/>
  <rect x="18" y="10" width="3" height="1" fill="#e1a42f"/>
  <rect x="21" y="10" width="1" height="1" fill="#e1a634"/>
  <rect x="22" y="10" width="1" height="1" fill="#d8a43f"/>
  <rect x="23" y="10" width="1" height="1" fill="#daa53d"/>
  <rect x="24" y="10" width="1" height="1" fill="#3d2010"/>
  <rect x="25" y="10" width="1" height="1" fill="#8b5d28"/>
  <rect x="26" y="10" width="3" height="1" fill="#9f6a2d"/>
  <rect x="29" y="10" width="1" height="1" fill="#a17b31"/>
  <rect x="30" y="10" width="1" height="1" fill="#d9a237"/>
  <rect x="31" y="10" width="1" height="1" fill="#d8b581"/>
  <rect x="32" y="10" width="2" height="1" fill="#3d2010"/>
  <rect x="1" y="11" width="1" height="1" fill="#3d2010"/>
  <rect x="8" y="11" width="1" height="1" fill="#3d2010"/>
  <rect x="9" y="11" width="1" height="1" fill="#5a3912"/>
  <rect x="10" y="11" width="3" height="1" fill="#e1a42f"/>
  <rect x="13" y="11" width="1" height="1" fill="#a77c2a"/>
  <rect x="14" y="11" width="1" height="1" fill="#895e2b"/>
  <rect x="15" y="11" width="3" height="1" fill="#a77c2a"/>
  <rect x="18" y="11" width="1" height="1" fill="#8c5d26"/>
  <rect x="19" y="11" width="1" height="1" fill="#dda230"/>
  <rect x="20" y="11" width="1" height="1" fill="#e0a432"/>
  <rect x="21" y="11" width="1" height="1" fill="#e1a532"/>
  <rect x="22" y="11" width="1" height="1" fill="#d8a440"/>
  <rect x="23" y="11" width="1" height="1" fill="#9b6c35"/>
  <rect x="24" y="11" width="6" height="1" fill="#3d2010"/>
  <rect x="30" y="11" width="1" height="1" fill="#a47b2b"/>
  <rect x="31" y="11" width="1" height="1" fill="#b79148"/>
  <rect x="32" y="11" width="1" height="1" fill="#ca9d5a"/>
  <rect x="33" y="11" width="1" height="1" fill="#3d2010"/>
  <rect x="0" y="12" width="1" height="1" fill="#3d2010"/>
  <rect x="1" y="12" width="1" height="1" fill="#453b34"/>
  <rect x="2" y="12" width="1" height="1" fill="#1b1613"/>
  <rect x="3" y="12" width="3" height="1" fill="#3d2010"/>
  <rect x="8" y="12" width="1" height="1" fill="#3d2010"/>
  <rect x="9" y="12" width="1" height="1" fill="#4f3211"/>
  <rect x="10" y="12" width="1" height="1" fill="#e1a531"/>
  <rect x="11" y="12" width="1" height="1" fill="#e1a634"/>
  <rect x="12" y="12" width="1" height="1" fill="#dea434"/>
  <rect x="13" y="12" width="2" height="1" fill="#7b501d"/>
  <rect x="15" y="12" width="4" height="1" fill="#a87d2a"/>
  <rect x="19" y="12" width="1" height="1" fill="#3d2010"/>
  <rect x="20" y="12" width="1" height="1" fill="#d69f34"/>
  <rect x="21" y="12" width="1" height="1" fill="#dca439"/>
  <rect x="22" y="12" width="1" height="1" fill="#dda538"/>
  <rect x="23" y="12" width="1" height="1" fill="#9e6b2f"/>
  <rect x="24" y="12" width="2" height="1" fill="#3d2010"/>
  <rect x="29" y="12" width="3" height="1" fill="#3d2010"/>
  <rect x="32" y="12" width="1" height="1" fill="#99682e"/>
  <rect x="33" y="12" width="2" height="1" fill="#3d2010"/>
  <rect x="0" y="13" width="2" height="1" fill="#3d2010"/>
  <rect x="2" y="13" width="1" height="1" fill="#805624"/>
  <rect x="3" y="13" width="1" height="1" fill="#c3912f"/>
  <rect x="4" y="13" width="1" height="1" fill="#946126"/>
  <rect x="5" y="13" width="1" height="1" fill="#2a1608"/>
  <rect x="6" y="13" width="2" height="1" fill="#151518"/>
  <rect x="8" y="13" width="1" height="1" fill="#3d2010"/>
  <rect x="9" y="13" width="1" height="1" fill="#7c4e19"/>
  <rect x="10" y="13" width="1" height="1" fill="#dfa638"/>
  <rect x="11" y="13" width="1" height="1" fill="#dda435"/>
  <rect x="12" y="13" width="1" height="1" fill="#e0aa41"/>
  <rect x="13" y="13" width="1" height="1" fill="#bf943f"/>
  <rect x="14" y="13" width="4" height="1" fill="#3d2010"/>
  <rect x="18" y="13" width="1" height="1" fill="#a87d2a"/>
  <rect x="19" y="13" width="1" height="1" fill="#3d2010"/>
  <rect x="20" y="13" width="1" height="1" fill="#d9a133"/>
  <rect x="21" y="13" width="1" height="1" fill="#dca539"/>
  <rect x="22" y="13" width="1" height="1" fill="#b88c36"/>
  <rect x="23" y="13" width="3" height="1" fill="#3d2010"/>
  <rect x="31" y="13" width="4" height="1" fill="#3d2010"/>
  <rect x="1" y="14" width="1" height="1" fill="#3d2010"/>
  <rect x="2" y="14" width="1" height="1" fill="#35230f"/>
  <rect x="3" y="14" width="1" height="1" fill="#64441e"/>
  <rect x="4" y="14" width="1" height="1" fill="#a06724"/>
  <rect x="5" y="14" width="1" height="1" fill="#855926"/>
  <rect x="6" y="14" width="2" height="1" fill="#8a5c26"/>
  <rect x="8" y="14" width="1" height="1" fill="#473015"/>
  <rect x="9" y="14" width="1" height="1" fill="#7e5019"/>
  <rect x="10" y="14" width="1" height="1" fill="#e1a533"/>
  <rect x="11" y="14" width="1" height="1" fill="#e1a634"/>
  <rect x="12" y="14" width="1" height="1" fill="#dfa534"/>
  <rect x="13" y="14" width="1" height="1" fill="#a1792d"/>
  <rect x="14" y="14" width="1" height="1" fill="#3d2010"/>
  <rect x="15" y="14" width="1" height="1" fill="#1a0e06"/>
  <rect x="16" y="14" width="1" height="1" fill="#3d2010"/>
  <rect x="18" y="14" width="2" height="1" fill="#3d2010"/>
  <rect x="20" y="14" width="1" height="1" fill="#d9a133"/>
  <rect x="21" y="14" width="1" height="1" fill="#e1a736"/>
  <rect x="22" y="14" width="1" height="1" fill="#a67f34"/>
  <rect x="23" y="14" width="1" height="1" fill="#3d2010"/>
  <rect x="24" y="14" width="1" height="1" fill="#1a0e06"/>
  <rect x="25" y="14" width="1" height="1" fill="#3d2010"/>
  <rect x="32" y="14" width="1" height="1" fill="#e07090"/>
  <rect x="1" y="15" width="2" height="1" fill="#3d2010"/>
  <rect x="3" y="15" width="1" height="1" fill="#210e00"/>
  <rect x="4" y="15" width="1" height="1" fill="#361600"/>
  <rect x="5" y="15" width="1" height="1" fill="#875e2c"/>
  <rect x="6" y="15" width="2" height="1" fill="#bd8c2b"/>
  <rect x="8" y="15" width="1" height="1" fill="#6c481c"/>
  <rect x="9" y="15" width="1" height="1" fill="#7f5019"/>
  <rect x="10" y="15" width="2" height="1" fill="#e1a42f"/>
  <rect x="12" y="15" width="1" height="1" fill="#875a24"/>
  <rect x="13" y="15" width="1" height="1" fill="#1a0e06"/>
  <rect x="14" y="15" width="1" height="1" fill="#3d2010"/>
  <rect x="15" y="15" width="1" height="1" fill="#1a0e06"/>
  <rect x="16" y="15" width="1" height="1" fill="#3d2010"/>
  <rect x="19" y="15" width="1" height="1" fill="#3d2010"/>
  <rect x="20" y="15" width="1" height="1" fill="#d9a133"/>
  <rect x="21" y="15" width="1" height="1" fill="#e1a42f"/>
  <rect x="22" y="15" width="1" height="1" fill="#b08533"/>
  <rect x="23" y="15" width="2" height="1" fill="#3d2010"/>
  <rect x="32" y="15" width="2" height="1" fill="#e07090"/>
  <rect x="2" y="16" width="3" height="1" fill="#3d2010"/>
  <rect x="5" y="16" width="1" height="1" fill="#6e4a20"/>
  <rect x="6" y="16" width="2" height="1" fill="#644724"/>
  <rect x="8" y="16" width="1" height="1" fill="#361600"/>
  <rect x="9" y="16" width="1" height="1" fill="#7e4f18"/>
  <rect x="10" y="16" width="2" height="1" fill="#e1a42f"/>
  <rect x="12" y="16" width="1" height="1" fill="#1a0e06"/>
  <rect x="13" y="16" width="1" height="1" fill="#3d2010"/>
  <rect x="14" y="16" width="1" height="1" fill="#1a0e06"/>
  <rect x="15" y="16" width="1" height="1" fill="#3d2010"/>
  <rect x="19" y="16" width="1" height="1" fill="#3d2010"/>
  <rect x="20" y="16" width="1" height="1" fill="#d9a133"/>
  <rect x="21" y="16" width="1" height="1" fill="#e1a430"/>
  <rect x="22" y="16" width="1" height="1" fill="#a77f33"/>
  <rect x="23" y="16" width="2" height="1" fill="#3d2010"/>
  <rect x="33" y="16" width="1" height="1" fill="#e07090"/>
  <rect x="4" y="17" width="5" height="1" fill="#3d2010"/>
  <rect x="9" y="17" width="1" height="1" fill="#7c5527"/>
  <rect x="10" y="17" width="1" height="1" fill="#a27c30"/>
  <rect x="11" y="17" width="1" height="1" fill="#e1a42f"/>
  <rect x="12" y="17" width="4" height="1" fill="#3d2010"/>
  <rect x="19" y="17" width="1" height="1" fill="#3d2010"/>
  <rect x="20" y="17" width="1" height="1" fill="#6a4a24"/>
  <rect x="21" y="17" width="1" height="1" fill="#ce982f"/>
  <rect x="22" y="17" width="3" height="1" fill="#3d2010"/>
  <rect x="8" y="18" width="2" height="1" fill="#3d2010"/>
  <rect x="10" y="18" width="1" height="1" fill="#96642a"/>
  <rect x="11" y="18" width="3" height="1" fill="#e1a42f"/>
  <rect x="14" y="18" width="1" height="1" fill="#3d2010"/>
  <rect x="15" y="18" width="1" height="1" fill="#1a0e06"/>
  <rect x="16" y="18" width="1" height="1" fill="#3d2010"/>
  <rect x="19" y="18" width="2" height="1" fill="#3d2010"/>
  <rect x="21" y="18" width="1" height="1" fill="#ab8233"/>
  <rect x="22" y="18" width="1" height="1" fill="#b48834"/>
  <rect x="23" y="18" width="1" height="1" fill="#b38834"/>
  <rect x="24" y="18" width="2" height="1" fill="#3d2010"/>
  <rect x="9" y="19" width="8" height="1" fill="#3d2010"/>
  <rect x="20" y="19" width="6" height="1" fill="#3d2010"/>
  <rect x="49" y="3" width="9" height="1" fill="#3d2010"/>
  <rect x="47" y="4" width="3" height="1" fill="#3d2010"/>
  <rect x="50" y="4" width="1" height="1" fill="#50310c"/>
  <rect x="51" y="4" width="1" height="1" fill="#ad7e23"/>
  <rect x="52" y="4" width="1" height="1" fill="#cc952b"/>
  <rect x="53" y="4" width="2" height="1" fill="#ab7c20"/>
  <rect x="55" y="4" width="1" height="1" fill="#b08024"/>
  <rect x="56" y="4" width="1" height="1" fill="#9e631d"/>
  <rect x="57" y="4" width="1" height="1" fill="#221507"/>
  <rect x="58" y="4" width="7" height="1" fill="#3d2010"/>
  <rect x="46" y="5" width="2" height="1" fill="#3d2010"/>
  <rect x="48" y="5" width="1" height="1" fill="#8e6331"/>
  <rect x="49" y="5" width="1" height="1" fill="#bd9039"/>
  <rect x="50" y="5" width="1" height="1" fill="#daab65"/>
  <rect x="51" y="5" width="1" height="1" fill="#d8a540"/>
  <rect x="52" y="5" width="1" height="1" fill="#e1ab59"/>
  <rect x="53" y="5" width="1" height="1" fill="#ce9f46"/>
  <rect x="54" y="5" width="1" height="1" fill="#ddc7ac"/>
  <rect x="55" y="5" width="1" height="1" fill="#dfa535"/>
  <rect x="56" y="5" width="1" height="1" fill="#bd8a29"/>
  <rect x="57" y="5" width="1" height="1" fill="#b8892d"/>
  <rect x="58" y="5" width="1" height="1" fill="#a97d29"/>
  <rect x="59" y="5" width="1" height="1" fill="#30200c"/>
  <rect x="60" y="5" width="1" height="1" fill="#3d2010"/>
  <rect x="61" y="5" width="1" height="1" fill="#ab8336"/>
  <rect x="62" y="5" width="1" height="1" fill="#cc9c3f"/>
  <rect x="63" y="5" width="1" height="1" fill="#dac4ab"/>
  <rect x="64" y="5" width="2" height="1" fill="#3d2010"/>
  <rect x="45" y="6" width="2" height="1" fill="#3d2010"/>
  <rect x="47" y="6" width="1" height="1" fill="#9b6c35"/>
  <rect x="48" y="6" width="1" height="1" fill="#c1953f"/>
  <rect x="49" y="6" width="1" height="1" fill="#c69a47"/>
  <rect x="50" y="6" width="1" height="1" fill="#dead64"/>
  <rect x="51" y="6" width="1" height="1" fill="#e1ad49"/>
  <rect x="52" y="6" width="1" height="1" fill="#e1ab5a"/>
  <rect x="53" y="6" width="1" height="1" fill="#e0ac47"/>
  <rect x="54" y="6" width="1" height="1" fill="#e1ab59"/>
  <rect x="55" y="6" width="1" height="1" fill="#e2a447"/>
  <rect x="56" y="6" width="1" height="1" fill="#dfab47"/>
  <rect x="57" y="6" width="1" height="1" fill="#e1a449"/>
  <rect x="58" y="6" width="1" height="1" fill="#cd9935"/>
  <rect x="59" y="6" width="1" height="1" fill="#b98d36"/>
  <rect x="60" y="6" width="1" height="1" fill="#b18530"/>
  <rect x="61" y="6" width="1" height="1" fill="#d7a458"/>
  <rect x="62" y="6" width="1" height="1" fill="#e1ad60"/>
  <rect x="63" y="6" width="1" height="1" fill="#d9ae5b"/>
  <rect x="64" y="6" width="1" height="1" fill="#dec7ab"/>
  <rect x="65" y="6" width="2" height="1" fill="#3d2010"/>
  <rect x="45" y="7" width="1" height="1" fill="#3d2010"/>
  <rect x="46" y="7" width="1" height="1" fill="#7a562d"/>
  <rect x="47" y="7" width="1" height="1" fill="#cfa554"/>
  <rect x="48" y="7" width="1" height="1" fill="#dcad67"/>
  <rect x="49" y="7" width="1" height="1" fill="#e2a54a"/>
  <rect x="50" y="7" width="1" height="1" fill="#e1af50"/>
  <rect x="51" y="7" width="3" height="1" fill="#e1a42f"/>
  <rect x="54" y="7" width="1" height="1" fill="#e1a531"/>
  <rect x="55" y="7" width="1" height="1" fill="#e1b45c"/>
  <rect x="56" y="7" width="1" height="1" fill="#e0a93f"/>
  <rect x="57" y="7" width="1" height="1" fill="#e2a64b"/>
  <rect x="58" y="7" width="1" height="1" fill="#d2a141"/>
  <rect x="59" y="7" width="1" height="1" fill="#dfa34a"/>
  <rect x="60" y="7" width="1" height="1" fill="#e1ad48"/>
  <rect x="61" y="7" width="1" height="1" fill="#e1a954"/>
  <rect x="62" y="7" width="2" height="1" fill="#000000"/>
  <rect x="64" y="7" width="1" height="1" fill="#e1a42f"/>
  <rect x="65" y="7" width="1" height="1" fill="#d1ae7a"/>
  <rect x="66" y="7" width="2" height="1" fill="#3d2010"/>
  <rect x="45" y="8" width="1" height="1" fill="#3d2010"/>
  <rect x="46" y="8" width="1" height="1" fill="#a57937"/>
  <rect x="47" y="8" width="1" height="1" fill="#daa556"/>
  <rect x="48" y="8" width="1" height="1" fill="#e1a64e"/>
  <rect x="49" y="8" width="16" height="1" fill="#e1a42f"/>
  <rect x="65" y="8" width="1" height="1" fill="#dfa043"/>
  <rect x="66" y="8" width="1" height="1" fill="#d1c4b5"/>
  <rect x="67" y="8" width="2" height="1" fill="#3d2010"/>
  <rect x="44" y="9" width="1" height="1" fill="#3d2010"/>
  <rect x="45" y="9" width="2" height="1" fill="#8a6130"/>
  <rect x="47" y="9" width="1" height="1" fill="#e1af50"/>
  <rect x="48" y="9" width="3" height="1" fill="#e1a42f"/>
  <rect x="51" y="9" width="1" height="1" fill="#e1a532"/>
  <rect x="52" y="9" width="1" height="1" fill="#e1a633"/>
  <rect x="53" y="9" width="2" height="1" fill="#e1a532"/>
  <rect x="55" y="9" width="4" height="1" fill="#e1a42f"/>
  <rect x="59" y="9" width="1" height="1" fill="#e1a634"/>
  <rect x="60" y="9" width="1" height="1" fill="#e1a430"/>
  <rect x="61" y="9" width="1" height="1" fill="#e1a635"/>
  <rect x="62" y="9" width="1" height="1" fill="#e0a533"/>
  <rect x="63" y="9" width="3" height="1" fill="#dea433"/>
  <rect x="66" y="9" width="1" height="1" fill="#dca656"/>
  <rect x="67" y="9" width="1" height="1" fill="#d8af72"/>
  <rect x="68" y="9" width="2" height="1" fill="#3d2010"/>
  <rect x="44" y="10" width="1" height="1" fill="#3d2010"/>
  <rect x="45" y="10" width="1" height="1" fill="#764d1d"/>
  <rect x="46" y="10" width="1" height="1" fill="#d39b30"/>
  <rect x="47" y="10" width="3" height="1" fill="#e1a42f"/>
  <rect x="50" y="10" width="5" height="1" fill="#d0992e"/>
  <rect x="55" y="10" width="3" height="1" fill="#e1a42f"/>
  <rect x="58" y="10" width="1" height="1" fill="#e1a634"/>
  <rect x="59" y="10" width="1" height="1" fill="#d8a43f"/>
  <rect x="60" y="10" width="1" height="1" fill="#daa53d"/>
  <rect x="61" y="10" width="1" height="1" fill="#3d2010"/>
  <rect x="62" y="10" width="1" height="1" fill="#8b5d28"/>
  <rect x="63" y="10" width="3" height="1" fill="#9f6a2d"/>
  <rect x="66" y="10" width="1" height="1" fill="#a17b31"/>
  <rect x="67" y="10" width="1" height="1" fill="#d9a237"/>
  <rect x="68" y="10" width="1" height="1" fill="#d8b581"/>
  <rect x="69" y="10" width="2" height="1" fill="#3d2010"/>
  <rect x="38" y="11" width="1" height="1" fill="#3d2010"/>
  <rect x="43" y="11" width="1" height="1" fill="#3d2010"/>
  <rect x="44" y="11" width="1" height="1" fill="#5a3912"/>
  <rect x="45" y="11" width="3" height="1" fill="#e1a42f"/>
  <rect x="48" y="11" width="1" height="1" fill="#a77c2a"/>
  <rect x="49" y="11" width="3" height="1" fill="#895e2b"/>
  <rect x="52" y="11" width="3" height="1" fill="#a77c2a"/>
  <rect x="55" y="11" width="1" height="1" fill="#8c5d26"/>
  <rect x="56" y="11" width="1" height="1" fill="#dda230"/>
  <rect x="57" y="11" width="1" height="1" fill="#e1a532"/>
  <rect x="58" y="11" width="1" height="1" fill="#d8a440"/>
  <rect x="59" y="11" width="1" height="1" fill="#9b6c35"/>
  <rect x="60" y="11" width="7" height="1" fill="#3d2010"/>
  <rect x="67" y="11" width="1" height="1" fill="#a47b2b"/>
  <rect x="68" y="11" width="1" height="1" fill="#b79148"/>
  <rect x="69" y="11" width="1" height="1" fill="#ca9d5a"/>
  <rect x="70" y="11" width="1" height="1" fill="#3d2010"/>
  <rect x="37" y="12" width="1" height="1" fill="#3d2010"/>
  <rect x="38" y="12" width="1" height="1" fill="#453b34"/>
  <rect x="39" y="12" width="1" height="1" fill="#1b1613"/>
  <rect x="40" y="12" width="4" height="1" fill="#3d2010"/>
  <rect x="44" y="12" width="1" height="1" fill="#4f3211"/>
  <rect x="45" y="12" width="1" height="1" fill="#e1a531"/>
  <rect x="46" y="12" width="1" height="1" fill="#e1a634"/>
  <rect x="47" y="12" width="1" height="1" fill="#dea434"/>
  <rect x="48" y="12" width="4" height="1" fill="#7b501d"/>
  <rect x="52" y="12" width="4" height="1" fill="#a87d2a"/>
  <rect x="56" y="12" width="1" height="1" fill="#3d2010"/>
  <rect x="57" y="12" width="1" height="1" fill="#d69f34"/>
  <rect x="58" y="12" width="1" height="1" fill="#9e6b2f"/>
  <rect x="59" y="12" width="2" height="1" fill="#3d2010"/>
  <rect x="61" y="12" width="1" height="1" fill="#1a0e06"/>
  <rect x="62" y="12" width="1" height="1" fill="#3d2010"/>
  <rect x="66" y="12" width="3" height="1" fill="#3d2010"/>
  <rect x="69" y="12" width="1" height="1" fill="#99682e"/>
  <rect x="70" y="12" width="2" height="1" fill="#3d2010"/>
  <rect x="37" y="13" width="2" height="1" fill="#3d2010"/>
  <rect x="39" y="13" width="1" height="1" fill="#805624"/>
  <rect x="40" y="13" width="1" height="1" fill="#c3912f"/>
  <rect x="41" y="13" width="1" height="1" fill="#946126"/>
  <rect x="42" y="13" width="1" height="1" fill="#2a1608"/>
  <rect x="43" y="13" width="1" height="1" fill="#3d2010"/>
  <rect x="44" y="13" width="1" height="1" fill="#7c4e19"/>
  <rect x="45" y="13" width="1" height="1" fill="#dfa638"/>
  <rect x="46" y="13" width="1" height="1" fill="#dda435"/>
  <rect x="47" y="13" width="1" height="1" fill="#e0aa41"/>
  <rect x="48" y="13" width="1" height="1" fill="#bf943f"/>
  <rect x="49" y="13" width="6" height="1" fill="#3d2010"/>
  <rect x="55" y="13" width="1" height="1" fill="#a87d2a"/>
  <rect x="56" y="13" width="1" height="1" fill="#3d2010"/>
  <rect x="57" y="13" width="1" height="1" fill="#d9a133"/>
  <rect x="58" y="13" width="3" height="1" fill="#3d2010"/>
  <rect x="61" y="13" width="2" height="1" fill="#1a0e06"/>
  <rect x="63" y="13" width="1" height="1" fill="#3d2010"/>
  <rect x="68" y="13" width="4" height="1" fill="#3d2010"/>
  <rect x="38" y="14" width="1" height="1" fill="#3d2010"/>
  <rect x="39" y="14" width="1" height="1" fill="#35230f"/>
  <rect x="40" y="14" width="1" height="1" fill="#64441e"/>
  <rect x="41" y="14" width="1" height="1" fill="#a06724"/>
  <rect x="42" y="14" width="1" height="1" fill="#855926"/>
  <rect x="43" y="14" width="1" height="1" fill="#473015"/>
  <rect x="44" y="14" width="1" height="1" fill="#7e5019"/>
  <rect x="45" y="14" width="1" height="1" fill="#e1a533"/>
  <rect x="46" y="14" width="1" height="1" fill="#e1a634"/>
  <rect x="47" y="14" width="1" height="1" fill="#dfa534"/>
  <rect x="48" y="14" width="1" height="1" fill="#a1792d"/>
  <rect x="49" y="14" width="2" height="1" fill="#3d2010"/>
  <rect x="51" y="14" width="2" height="1" fill="#1a0e06"/>
  <rect x="53" y="14" width="2" height="1" fill="#3d2010"/>
  <rect x="55" y="14" width="1" height="1" fill="#d9a133"/>
  <rect x="56" y="14" width="1" height="1" fill="#e1a736"/>
  <rect x="57" y="14" width="1" height="1" fill="#a67f34"/>
  <rect x="58" y="14" width="1" height="1" fill="#3d2010"/>
  <rect x="60" y="14" width="1" height="1" fill="#3d2010"/>
  <rect x="61" y="14" width="2" height="1" fill="#1a0e06"/>
  <rect x="63" y="14" width="1" height="1" fill="#3d2010"/>
  <rect x="69" y="14" width="1" height="1" fill="#e07090"/>
  <rect x="38" y="15" width="2" height="1" fill="#3d2010"/>
  <rect x="40" y="15" width="1" height="1" fill="#210e00"/>
  <rect x="41" y="15" width="1" height="1" fill="#361600"/>
  <rect x="42" y="15" width="1" height="1" fill="#875e2c"/>
  <rect x="43" y="15" width="1" height="1" fill="#6c481c"/>
  <rect x="44" y="15" width="1" height="1" fill="#7f5019"/>
  <rect x="45" y="15" width="2" height="1" fill="#e1a42f"/>
  <rect x="47" y="15" width="1" height="1" fill="#875a24"/>
  <rect x="48" y="15" width="1" height="1" fill="#1a0e06"/>
  <rect x="49" y="15" width="2" height="1" fill="#3d2010"/>
  <rect x="51" y="15" width="2" height="1" fill="#1a0e06"/>
  <rect x="53" y="15" width="2" height="1" fill="#3d2010"/>
  <rect x="55" y="15" width="1" height="1" fill="#d9a133"/>
  <rect x="56" y="15" width="1" height="1" fill="#e1a42f"/>
  <rect x="57" y="15" width="1" height="1" fill="#b08533"/>
  <rect x="58" y="15" width="1" height="1" fill="#3d2010"/>
  <rect x="60" y="15" width="1" height="1" fill="#3d2010"/>
  <rect x="61" y="15" width="2" height="1" fill="#1a0e06"/>
  <rect x="63" y="15" width="1" height="1" fill="#3d2010"/>
  <rect x="69" y="15" width="2" height="1" fill="#e07090"/>
  <rect x="39" y="16" width="3" height="1" fill="#3d2010"/>
  <rect x="42" y="16" width="1" height="1" fill="#6e4a20"/>
  <rect x="43" y="16" width="1" height="1" fill="#361600"/>
  <rect x="44" y="16" width="1" height="1" fill="#7e4f18"/>
  <rect x="45" y="16" width="2" height="1" fill="#e1a42f"/>
  <rect x="47" y="16" width="1" height="1" fill="#1a0e06"/>
  <rect x="48" y="16" width="1" height="1" fill="#3d2010"/>
  <rect x="50" y="16" width="1" height="1" fill="#3d2010"/>
  <rect x="51" y="16" width="1" height="1" fill="#1a0e06"/>
  <rect x="52" y="16" width="1" height="1" fill="#3d2010"/>
  <rect x="53" y="16" width="1" height="1" fill="#1a0e06"/>
  <rect x="54" y="16" width="1" height="1" fill="#3d2010"/>
  <rect x="55" y="16" width="1" height="1" fill="#d9a133"/>
  <rect x="56" y="16" width="1" height="1" fill="#e1a430"/>
  <rect x="57" y="16" width="1" height="1" fill="#a77f33"/>
  <rect x="58" y="16" width="1" height="1" fill="#3d2010"/>
  <rect x="60" y="16" width="1" height="1" fill="#3d2010"/>
  <rect x="61" y="16" width="2" height="1" fill="#1a0e06"/>
  <rect x="63" y="16" width="1" height="1" fill="#3d2010"/>
  <rect x="70" y="16" width="1" height="1" fill="#e07090"/>
  <rect x="41" y="17" width="3" height="1" fill="#3d2010"/>
  <rect x="44" y="17" width="1" height="1" fill="#7c5527"/>
  <rect x="45" y="17" width="1" height="1" fill="#a27c30"/>
  <rect x="46" y="17" width="1" height="1" fill="#e1a42f"/>
  <rect x="47" y="17" width="2" height="1" fill="#3d2010"/>
  <rect x="50" y="17" width="1" height="1" fill="#3d2010"/>
  <rect x="51" y="17" width="2" height="1" fill="#1a0e06"/>
  <rect x="53" y="17" width="2" height="1" fill="#3d2010"/>
  <rect x="55" y="17" width="1" height="1" fill="#6a4a24"/>
  <rect x="56" y="17" width="1" height="1" fill="#ce982f"/>
  <rect x="57" y="17" width="2" height="1" fill="#3d2010"/>
  <rect x="61" y="17" width="1" height="1" fill="#3d2010"/>
  <rect x="62" y="17" width="1" height="1" fill="#1a0e06"/>
  <rect x="63" y="17" width="1" height="1" fill="#3d2010"/>
  <rect x="43" y="18" width="2" height="1" fill="#3d2010"/>
  <rect x="45" y="18" width="1" height="1" fill="#96642a"/>
  <rect x="46" y="18" width="3" height="1" fill="#e1a42f"/>
  <rect x="49" y="18" width="1" height="1" fill="#3d2010"/>
  <rect x="51" y="18" width="1" height="1" fill="#3d2010"/>
  <rect x="52" y="18" width="2" height="1" fill="#1a0e06"/>
  <rect x="54" y="18" width="2" height="1" fill="#3d2010"/>
  <rect x="56" y="18" width="1" height="1" fill="#ab8233"/>
  <rect x="57" y="18" width="1" height="1" fill="#b48834"/>
  <rect x="58" y="18" width="1" height="1" fill="#b38834"/>
  <rect x="59" y="18" width="1" height="1" fill="#3d2010"/>
  <rect x="61" y="18" width="1" height="1" fill="#3d2010"/>
  <rect x="62" y="18" width="1" height="1" fill="#1e0f05"/>
  <rect x="63" y="18" width="1" height="1" fill="#1a0e06"/>
  <rect x="64" y="18" width="1" height="1" fill="#3d2010"/>
  <rect x="44" y="19" width="6" height="1" fill="#3d2010"/>
  <rect x="51" y="19" width="9" height="1" fill="#3d2010"/>
  <rect x="61" y="19" width="4" height="1" fill="#3d2010"/>
</svg>