<?xml version="1.0" encoding="UTF-8"?>
<svg xmlns="http://www.w3.org/2000/svg" width="118" height="16" viewBox="0 0 118 16" shape-rendering="crispEdges">
  <rect x="5" y="2" width="1" height="1" fill="#4a2000"/>
  <rect x="8" y="2" width="1" height="1" fill="#4a2000"/>
  <rect x="6" y="3" width="1" height="1" fill="#4a2000"/>
  <rect x="8" y="3" width="1" height="1" fill="#4a2000"/>
  <rect x="5" y="4" width="4" height="1" fill="#4a2000"/>
  <rect x="11" y="4" width="2" height="1" fill="#4a2000"/>
  <rect x="16" y="4" width="1" height="1" fill="#4a2000"/>
  <rect x="20" y="4" width="3" height="1" fill="#4a2000"/>
  <rect x="4" y="5" width="1" height="1" fill="#4a2000"/>
  <rect x="5" y="5" width="4" height="1" fill="#D46203"/>
  <rect x="9" y="5" width="2" height="1" fill="#4a2000"/>
  <rect x="11" y="5" width="2" height="1" fill="#D46203"/>
  <rect x="13" y="5" width="1" height="1" fill="#4a2000"/>
  <rect x="15" y="5" width="1" height="1" fill="#4a2000"/>
  <rect x="16" y="5" width="1" height="1" fill="#D46203"/>
  <rect x="17" y="5" width="1" height="1" fill="#4a2000"/>
  <rect x="19" y="5" width="1" height="1" fill="#4a2000"/>
  <rect x="20" y="5" width="3" height="1" fill="#D46203"/>
  <rect x="23" y="5" width="2" height="1" fill="#4a2000"/>
  <rect x="2" y="6" width="2" height="1" fill="#4a2000"/>
  <rect x="4" y="6" width="1" height="1" fill="#D46203"/>
  <rect x="5" y="6" width="1" height="1" fill="#000000"/>
  <rect x="6" y="6" width="3" height="1" fill="#D46203"/>
  <rect x="9" y="6" width="1" height="1" fill="#4a2000"/>
  <rect x="10" y="6" width="4" height="1" fill="#D46203"/>
  <rect x="14" y="6" width="1" height="1" fill="#4a2000"/>
  <rect x="15" y="6" width="3" height="1" fill="#D46203"/>
  <rect x="18" y="6" width="1" height="1" fill="#4a2000"/>
  <rect x="19" y="6" width="6" height="1" fill="#D46203"/>
  <rect x="25" y="6" width="1" height="1" fill="#4a2000"/>
  <rect x="1" y="7" width="1" height="1" fill="#4a2000"/>
  <rect x="2" y="7" width="7" height="1" fill="#D46203"/>
  <rect x="9" y="7" width="1" height="1" fill="#4a2000"/>
  <rect x="10" y="7" width="1" height="1" fill="#A24400"/>
  <rect x="11" y="7" width="3" height="1" fill="#D46203"/>
  <rect x="14" y="7" width="1" height="1" fill="#4a2000"/>
  <rect x="15" y="7" width="1" height="1" fill="#A24400"/>
  <rect x="16" y="7" width="2" height="1" fill="#D46203"/>
  <rect x="18" y="7" width="1" height="1" fill="#4a2000"/>
  <rect x="19" y="7" width="1" height="1" fill="#A24400"/>
  <rect x="20" y="7" width="6" height="1" fill="#D46203"/>
  <rect x="26" y="7" width="1" height="1" fill="#4a2000"/>
  <rect x="1" y="8" width="4" height="1" fill="#4a2000"/>
  <rect x="5" y="8" width="4" height="1" fill="#D46203"/>
  <rect x="9" y="8" width="1" height="1" fill="#4a2000"/>
  <rect x="10" y="8" width="1" height="1" fill="#A24400"/>
  <rect x="11" y="8" width="1" height="1" fill="#4a2000"/>
  <rect x="12" y="8" width="2" height="1" fill="#A24400"/>
  <rect x="14" y="8" width="1" height="1" fill="#4a2000"/>
  <rect x="15" y="8" width="3" height="1" fill="#A24400"/>
  <rect x="18" y="8" width="1" height="1" fill="#4a2000"/>
  <rect x="19" y="8" width="1" height="1" fill="#A24400"/>
  <rect x="20" y="8" width="1" height="1" fill="#4a2000"/>
  <rect x="21" y="8" width="4" height="1" fill="#A24400"/>
  <rect x="25" y="8" width="1" height="1" fill="#4a2000"/>
  <rect x="4" y="9" width="1" height="1" fill="#4a2000"/>
  <rect x="5" y="9" width="3" height="1" fill="#A24400"/>
  <rect x="8" y="9" width="1" height="1" fill="#4a2000"/>
  <rect x="10" y="9" width="2" height="1" fill="#4a2000"/>
  <rect x="12" y="9" width="1" height="1" fill="#A24400"/>
  <rect x="13" y="9" width="3" height="1" fill="#4a2000"/>
  <rect x="16" y="9" width="1" height="1" fill="#A24400"/>
  <rect x="17" y="9" width="4" height="1" fill="#4a2000"/>
  <rect x="21" y="9" width="2" height="1" fill="#A24400"/>
  <rect x="23" y="9" width="2" height="1" fill="#4a2000"/>
  <rect x="2" y="10" width="2" height="1" fill="#4a2000"/>
  <rect x="4" y="10" width="2" height="1" fill="#A24400"/>
  <rect x="6" y="10" width="2" height="1" fill="#4a2000"/>
  <rect x="11" y="10" width="8" height="1" fill="#4a2000"/>
  <rect x="20" y="10" width="3" height="1" fill="#4a2000"/>
  <rect x="3" y="11" width="3" height="1" fill="#4a2000"/>
  <rect x="11" y="11" width="1" height="1" fill="#4a2000"/>
  <rect x="15" y="11" width="1" height="1" fill="#4a2000"/>
  <rect x="20" y="11" width="1" height="1" fill="#4a2000"/>
  <rect x="11" y="12" width="1" height="1" fill="#4a2000"/>
  <rect x="15" y="12" width="1" height="1" fill="#4a2000"/>
  <rect x="20" y="12" width="1" height="1" fill="#4a2000"/>
  <rect x="9" y="13" width="3" height="1" fill="#4a2000"/>
  <rect x="13" y="13" width="3" height="1" fill="#4a2000"/>
  <rect x="19" y="13" width="2" height="1" fill="#4a2000"/>
  <rect x="35" y="2" width="1" height="1" fill="#4a2000"/>
  <rect x="38" y="2" width="1" height="1" fill="#4a2000"/>
  <rect x="36" y="3" width="1" height="1" fill="#4a2000"/>
  <rect x="38" y="3" width="1" height="1" fill="#4a2000"/>
  <rect x="35" y="4" width="4" height="1" fill="#4a2000"/>
  <rect x="41" y="4" width="2" height="1" fill="#4a2000"/>
  <rect x="46" y="4" width="1" height="1" fill="#4a2000"/>
  <rect x="50" y="4" width="3" height="1" fill="#4a2000"/>
  <rect x="34" y="5" width="1" height="1" fill="#4a2000"/>
  <rect x="35" y="5" width="4" height="1" fill="#D46203"/>
  <rect x="39" y="5" width="2" height="1" fill="#4a2000"/>
  <rect x="41" y="5" width="2" height="1" fill="#D46203"/>
  <rect x="43" y="5" width="1" height="1" fill="#4a2000"/>
  <rect x="45" y="5" width="1" height="1" fill="#4a2000"/>
  <rect x="46" y="5" width="1" height="1" fill="#D46203"/>
  <rect x="47" y="5" width="1" height="1" fill="#4a2000"/>
  <rect x="49" y="5" width="1" height="1" fill="#4a2000"/>
  <rect x="50" y="5" width="3" height="1" fill="#D46203"/>
  <rect x="53" y="5" width="2" height="1" fill="#4a2000"/>
  <rect x="32" y="6" width="2" height="1" fill="#4a2000"/>
  <rect x="34" y="6" width="1" height="1" fill="#D46203"/>
  <rect x="35" y="6" width="1" height="1" fill="#000000"/>
  <rect x="36" y="6" width="3" height="1" fill="#D46203"/>
  <rect x="39" y="6" width="1" height="1" fill="#4a2000"/>
  <rect x="40" y="6" width="4" height="1" fill="#D46203"/>
  <rect x="44" y="6" width="1" height="1" fill="#4a2000"/>
  <rect x="45" y="6" width="3" height="1" fill="#D46203"/>
  <rect x="48" y="6" width="1" height="1" fill="#4a2000"/>
  <rect x="49" y="6" width="6" height="1" fill="#D46203"/>
  <rect x="55" y="6" width="1" height="1" fill="#4a2000"/>
  <rect x="31" y="7" width="1" height="1" fill="#4a2000"/>
  <rect x="32" y="7" width="7" height="1" fill="#D46203"/>
  <rect x="39" y="7" width="1" height="1" fill="#4a2000"/>
  <rect x="40" y="7" width="1" height="1" fill="#A24400"/>
  <rect x="41" y="7" width="3" height="1" fill="#D46203"/>
  <rect x="44" y="7" width="1" height="1" fill="#4a2000"/>
  <rect x="45" y="7" width="1" height="1" fill="#A24400"/>
  <rect x="46" y="7" width="2" height="1" fill="#D46203"/>
  <rect x="48" y="7" width="1" height="1" fill="#4a2000"/>
  <rect x="49" y="7" width="1" height="1" fill="#A24400"/>
  <rect x="50" y="7" width="6" height="1" fill="#D46203"/>
  <rect x="56" y="7" width="1" height="1" fill="#4a2000"/>
  <rect x="31" y="8" width="4" height="1" fill="#4a2000"/>
  <rect x="35" y="8" width="3" height="1" fill="#A24400"/>
  <rect x="38" y="8" width="2" height="1" fill="#4a2000"/>
  <rect x="40" y="8" width="1" height="1" fill="#A24400"/>
  <rect x="41" y="8" width="1" height="1" fill="#4a2000"/>
  <rect x="42" y="8" width="2" height="1" fill="#A24400"/>
  <rect x="44" y="8" width="1" height="1" fill="#4a2000"/>
  <rect x="45" y="8" width="3" height="1" fill="#A24400"/>
  <rect x="48" y="8" width="1" height="1" fill="#4a2000"/>
  <rect x="49" y="8" width="1" height="1" fill="#A24400"/>
  <rect x="50" y="8" width="1" height="1" fill="#4a2000"/>
  <rect x="51" y="8" width="4" height="1" fill="#A24400"/>
  <rect x="55" y="8" width="1" height="1" fill="#4a2000"/>
  <rect x="32" y="9" width="2" height="1" fill="#4a2000"/>
  <rect x="34" y="9" width="2" height="1" fill="#A24400"/>
  <rect x="36" y="9" width="2" height="1" fill="#4a2000"/>
  <rect x="40" y="9" width="2" height="1" fill="#4a2000"/>
  <rect x="42" y="9" width="1" height="1" fill="#A24400"/>
  <rect x="43" y="9" width="3" height="1" fill="#4a2000"/>
  <rect x="46" y="9" width="1" height="1" fill="#A24400"/>
  <rect x="47" y="9" width="4" height="1" fill="#4a2000"/>
  <rect x="51" y="9" width="2" height="1" fill="#A24400"/>
  <rect x="53" y="9" width="2" height="1" fill="#4a2000"/>
  <rect x="33" y="10" width="3" height="1" fill="#4a2000"/>
  <rect x="41" y="10" width="8" height="1" fill="#4a2000"/>
  <rect x="50" y="10" width="3" height="1" fill="#4a2000"/>
  <rect x="41" y="11" width="1" height="1" fill="#4a2000"/>
  <rect x="45" y="11" width="1" height="1" fill="#4a2000"/>
  <rect x="50" y="11" width="1" height="1" fill="#4a2000"/>
  <rect x="40" y="12" width="2" height="1" fill="#4a2000"/>
  <rect x="46" y="12" width="1" height="1" fill="#4a2000"/>
  <rect x="49" y="12" width="2" height="1" fill="#4a2000"/>
  <rect x="38" y="13" width="3" height="1" fill="#4a2000"/>
  <rect x="44" y="13" width="3" height="1" fill="#4a2000"/>
  <rect x="48" y="13" width="2" height="1" fill="#4a2000"/>
  <rect x="65" y="2" width="1" height="1" fill="#4a2000"/>
  <rect x="68" y="2" width="1" height="1" fill="#4a2000"/>
  <rect x="66" y="3" width="1" height="1" fill="#4a2000"/>
  <rect x="68" y="3" width="1" height="1" fill="#4a2000"/>
  <rect x="65" y="4" width="4" height="1" fill="#4a2000"/>
  <rect x="71" y="4" width="2" height="1" fill="#4a2000"/>
  <rect x="76" y="4" width="1" height="1" fill="#4a2000"/>
  <rect x="80" y="4" width="3" height="1" fill="#4a2000"/>
  <rect x="64" y="5" width="1" height="1" fill="#4a2000"/>
  <rect x="65" y="5" width="4" height="1" fill="#D46203"/>
  <rect x="69" y="5" width="2" height="1" fill="#4a2000"/>
  <rect x="71" y="5" width="2" height="1" fill="#D46203"/>
  <rect x="73" y="5" width="1" height="1" fill="#4a2000"/>
  <rect x="75" y="5" width="1" height="1" fill="#4a2000"/>
  <rect x="76" y="5" width="1" height="1" fill="#D46203"/>
  <rect x="77" y="5" width="1" height="1" fill="#4a2000"/>
  <rect x="79" y="5" width="1" height="1" fill="#4a2000"/>
  <rect x="80" y="5" width="3" height="1" fill="#D46203"/>
  <rect x="83" y="5" width="2" height="1" fill="#4a2000"/>
  <rect x="62" y="6" width="2" height="1" fill="#4a2000"/>
  <rect x="64" y="6" width="1" height="1" fill="#D46203"/>
  <rect x="65" y="6" width="1" height="1" fill="#000000"/>
  <rect x="66" y="6" width="3" height="1" fill="#D46203"/>
  <rect x="69" y="6" width="1" height="1" fill="#4a2000"/>
  <rect x="70" y="6" width="4" height="1" fill="#D46203"/>
  <rect x="74" y="6" width="1" height="1" fill="#4a2000"/>
  <rect x="75" y="6" width="3" height="1" fill="#D46203"/>
  <rect x="78" y="6" width="1" height="1" fill="#4a2000"/>
  <rect x="79" y="6" width="6" height="1" fill="#D46203"/>
  <rect x="85" y="6" width="1" height="1" fill="#4a2000"/>
  <rect x="61" y="7" width="1" height="1" fill="#4a2000"/>
  <rect x="62" y="7" width="7" height="1" fill="#D46203"/>
  <rect x="69" y="7" width="1" height="1" fill="#4a2000"/>
  <rect x="70" y="7" width="1" height="1" fill="#A24400"/>
  <rect x="71" y="7" width="3" height="1" fill="#D46203"/>
  <rect x="74" y="7" width="1" height="1" fill="#4a2000"/>
  <rect x="75" y="7" width="1" height="1" fill="#A24400"/>
  <rect x="76" y="7" width="2" height="1" fill="#D46203"/>
  <rect x="78" y="7" width="1" height="1" fill="#4a2000"/>
  <rect x="79" y="7" width="1" height="1" fill="#A24400"/>
  <rect x="80" y="7" width="6" height="1" fill="#D46203"/>
  <rect x="86" y="7" width="1" height="1" fill="#4a2000"/>
  <rect x="61" y="8" width="4" height="1" fill="#4a2000"/>
  <rect x="65" y="8" width="4" height="1" fill="#D46203"/>
  <rect x="69" y="8" width="1" height="1" fill="#4a2000"/>
  <rect x="70" y="8" width="1" height="1" fill="#A24400"/>
  <rect x="71" y="8" width="1" height="1" fill="#4a2000"/>
  <rect x="72" y="8" width="2" height="1" fill="#A24400"/>
  <rect x="74" y="8" width="1" height="1" fill="#4a2000"/>
  <rect x="75" y="8" width="3" height="1" fill="#A24400"/>
  <rect x="78" y="8" width="1" height="1" fill="#4a2000"/>
  <rect x="79" y="8" width="1" height="1" fill="#A24400"/>
  <rect x="80" y="8" width="1" height="1" fill="#4a2000"/>
  <rect x="81" y="8" width="4" height="1" fill="#A24400"/>
  <rect x="85" y="8" width="1" height="1" fill="#4a2000"/>
  <rect x="64" y="9" width="1" height="1" fill="#4a2000"/>
  <rect x="65" y="9" width="3" height="1" fill="#A24400"/>
  <rect x="68" y="9" width="1" height="1" fill="#4a2000"/>
  <rect x="70" y="9" width="2" height="1" fill="#4a2000"/>
  <rect x="72" y="9" width="1" height="1" fill="#A24400"/>
  <rect x="73" y="9" width="3" height="1" fill="#4a2000"/>
  <rect x="76" y="9" width="1" height="1" fill="#A24400"/>
  <rect x="77" y="9" width="4" height="1" fill="#4a2000"/>
  <rect x="81" y="9" width="2" height="1" fill="#A24400"/>
  <rect x="83" y="9" width="2" height="1" fill="#4a2000"/>
  <rect x="62" y="10" width="2" height="1" fill="#4a2000"/>
  <rect x="64" y="10" width="2" height="1" fill="#A24400"/>
  <rect x="66" y="10" width="2" height="1" fill="#4a2000"/>
  <rect x="71" y="10" width="8" height="1" fill="#4a2000"/>
  <rect x="80" y="10" width="3" height="1" fill="#4a2000"/>
  <rect x="63" y="11" width="3" height="1" fill="#4a2000"/>
  <rect x="71" y="11" width="1" height="1" fill="#4a2000"/>
  <rect x="76" y="11" width="1" height="1" fill="#4a2000"/>
  <rect x="80" y="11" width="1" height="1" fill="#4a2000"/>
  <rect x="72" y="12" width="1" height="1" fill="#4a2000"/>
  <rect x="75" y="12" width="1" height="1" fill="#4a2000"/>
  <rect x="81" y="12" width="1" height="1" fill="#4a2000"/>
  <rect x="70" y="13" width="3" height="1" fill="#4a2000"/>
  <rect x="74" y="13" width="2" height="1" fill="#4a2000"/>
  <rect x="80" y="13" width="3" height="1" fill="#4a2000"/>
  <rect x="95" y="2" width="1" height="1" fill="#4a2000"/>
  <rect x="98" y="2" width="1" height="1" fill="#4a2000"/>
  <rect x="96" y="3" width="1" height="1" fill="#4a2000"/>
  <rect x="98" y="3" width="1" height="1" fill="#4a2000"/>
  <rect x="95" y="4" width="4" height="1" fill="#4a2000"/>
  <rect x="101" y="4" width="2" height="1" fill="#4a2000"/>
  <rect x="106" y="4" width="1" height="1" fill="#4a2000"/>
  <rect x="110" y="4" width="3" height="1" fill="#4a2000"/>
  <rect x="94" y="5" width="1" height="1" fill="#4a2000"/>
  <rect x="95" y="5" width="4" height="1" fill="#D46203"/>
  <rect x="99" y="5" width="2" height="1" fill="#4a2000"/>
  <rect x="101" y="5" width="2" height="1" fill="#D46203"/>
  <rect x="103" y="5" width="1" height="1" fill="#4a2000"/>
  <rect x="105" y="5" width="1" height="1" fill="#4a2000"/>
  <rect x="106" y="5" width="1" height="1" fill="#D46203"/>
  <rect x="107" y="5" width="1" height="1" fill="#4a2000"/>
  <rect x="109" y="5" width="1" height="1" fill="#4a2000"/>
  <rect x="110" y="5" width="3" height="1" fill="#D46203"/>
  <rect x="113" y="5" width="2" height="1" fill="#4a2000"/>
  <rect x="92" y="6" width="2" height="1" fill="#4a2000"/>
  <rect x="94" y="6" width="1" height="1" fill="#D46203"/>
  <rect x="95" y="6" width="1" height="1" fill="#000000"/>
  <rect x="96" y="6" width="3" height="1" fill="#D46203"/>
  <rect x="99" y="6" width="1" height="1" fill="#4a2000"/>
  <rect x="100" y="6" width="4" height="1" fill="#D46203"/>
  <rect x="104" y="6" width="1" height="1" fill="#4a2000"/>
  <rect x="105" y="6" width="3" height="1" fill="#D46203"/>
  <rect x="108" y="6" width="1" height="1" fill="#4a2000"/>
  <rect x="109" y="6" width="6" height="1" fill="#D46203"/>
  <rect x="115" y="6" width="1" height="1" fill="#4a2000"/>
  <rect x="91" y="7" width="1" height="1" fill="#4a2000"/>
  <rect x="92" y="7" width="7" height="1" fill="#D46203"/>
  <rect x="99" y="7" width="1" height="1" fill="#4a2000"/>
  <rect x="100" y="7" width="1" height="1" fill="#A24400"/>
  <rect x="101" y="7" width="3" height="1" fill="#D46203"/>
  <rect x="104" y="7" width="1" height="1" fill="#4a2000"/>
  <rect x="105" y="7" width="1" height="1" fill="#A24400"/>
  <rect x="106" y="7" width="2" height="1" fill="#D46203"/>
  <rect x="108" y="7" width="1" height="1" fill="#4a2000"/>
  <rect x="109" y="7" width="1" height="1" fill="#A24400"/>
  <rect x="110" y="7" width="6" height="1" fill="#D46203"/>
  <rect x="116" y="7" width="1" height="1" fill="#4a2000"/>
  <rect x="91" y="8" width="4" height="1" fill="#4a2000"/>
  <rect x="95" y="8" width="3" height="1" fill="#A24400"/>
  <rect x="98" y="8" width="2" height="1" fill="#4a2000"/>
  <rect x="100" y="8" width="1" height="1" fill="#A24400"/>
  <rect x="101" y="8" width="1" height="1" fill="#4a2000"/>
  <rect x="102" y="8" width="2" height="1" fill="#A24400"/>
  <rect x="104" y="8" width="1" height="1" fill="#4a2000"/>
  <rect x="105" y="8" width="3" height="1" fill="#A24400"/>
  <rect x="108" y="8" width="1" height="1" fill="#4a2000"/>
  <rect x="109" y="8" width="1" height="1" fill="#A24400"/>
  <rect x="110" y="8" width="1" height="1" fill="#4a2000"/>
  <rect x="111" y="8" width="4" height="1" fill="#A24400"/>
  <rect x="115" y="8" width="1" height="1" fill="#4a2000"/>
  <rect x="92" y="9" width="2" height="1" fill="#4a2000"/>
  <rect x="94" y="9" width="2" height="1" fill="#A24400"/>
  <rect x="96" y="9" width="2" height="1" fill="#4a2000"/>
  <rect x="100" y="9" width="2" height="1" fill="#4a2000"/>
  <rect x="102" y="9" width="1" height="1" fill="#A24400"/>
  <rect x="103" y="9" width="3" height="1" fill="#4a2000"/>
  <rect x="106" y="9" width="1" height="1" fill="#A24400"/>
  <rect x="107" y="9" width="4" height="1" fill="#4a2000"/>
  <rect x="111" y="9" width="2" height="1" fill="#A24400"/>
  <rect x="113" y="9" width="2" height="1" fill="#4a2000"/>
  <rect x="93" y="10" width="3" height="1" fill="#4a2000"/>
  <rect x="101" y="10" width="8" height="1" fill="#4a2000"/>
  <rect x="110" y="10" width="3" height="1" fill="#4a2000"/>
  <rect x="101" y="11" width="1" height="1" fill="#4a2000"/>
  <rect x="105" y="11" width="1" height="1" fill="#4a2000"/>
  <rect x="111" y="11" width="1" height="1" fill="#4a2000"/>
  <rect x="100" y="12" width="1" height="1" fill="#4a2000"/>
  <rect x="105" y="12" width="1" height="1" fill="#4a2000"/>
  <rect x="112" y="12" width="1" height="1" fill="#4a2000"/>
  <rect x="97" y="13" width="3" height="1" fill="#4a2000"/>
  <rect x="103" y="13" width="3" height="1" fill="#4a2000"/>
  <rect x="110" y="13" width="4" height="1" fill="#4a2000"/>
</svg>