<?xml version="1.0" encoding="UTF-8"?>
<svg xmlns="http://www.w3.org/2000/svg" width="420" height="270" viewBox="0 0 420 270" shape-rendering="crispEdges">
  <rect x="100" y="20" width="10" height="10" fill="#755f45"/>
  <rect x="90" y="30" width="10" height="10" fill="#755f45"/>
  <rect x="100" y="30" width="10" height="10" fill="#e6cdaf"/>
  <rect x="110" y="30" width="10" height="10" fill="#755f45"/>
  <rect x="160" y="30" width="10" height="10" fill="#755f45"/>
  <rect x="60" y="40" width="10" height="10" fill="#755f45"/>
  <rect x="90" y="40" width="10" height="10" fill="#755f45"/>
  <rect x="100" y="40" width="20" height="10" fill="#e6cdaf"/>
  <rect x="120" y="40" width="10" height="10" fill="#755f45"/>
  <rect x="150" y="40" width="10" height="10" fill="#755f45"/>
  <rect x="160" y="40" width="10" height="10" fill="#b9a48c"/>
  <rect x="170" y="40" width="10" height="10" fill="#755f45"/>
  <rect x="50" y="50" width="10" height="10" fill="#755f45"/>
  <rect x="60" y="50" width="10" height="10" fill="#e6cdaf"/>
  <rect x="70" y="50" width="10" height="10" fill="#755f45"/>
  <rect x="100" y="50" width="10" height="10" fill="#755f45"/>
  <rect x="110" y="50" width="20" height="10" fill="#e6cdaf"/>
  <rect x="130" y="50" width="10" height="10" fill="#755f45"/>
  <rect x="160" y="50" width="10" height="10" fill="#755f45"/>
  <rect x="170" y="50" width="10" height="10" fill="#e7ceb0"/>
  <rect x="180" y="50" width="10" height="10" fill="#755f45"/>
  <rect x="50" y="60" width="10" height="10" fill="#755f45"/>
  <rect x="60" y="60" width="10" height="10" fill="#e5cbad"/>
  <rect x="70" y="60" width="10" height="10" fill="#e6cdaf"/>
  <rect x="80" y="60" width="10" height="10" fill="#755f45"/>
  <rect x="110" y="60" width="10" height="10" fill="#755f45"/>
  <rect x="120" y="60" width="10" height="10" fill="#e6cdaf"/>
  <rect x="130" y="60" width="10" height="10" fill="#e4cdb2"/>
  <rect x="140" y="60" width="10" height="10" fill="#755f45"/>
  <rect x="160" y="60" width="10" height="10" fill="#755f45"/>
  <rect x="170" y="60" width="10" height="10" fill="#e6cdb1"/>
  <rect x="180" y="60" width="10" height="10" fill="#755f45"/>
  <rect x="60" y="70" width="10" height="10" fill="#755f45"/>
  <rect x="70" y="70" width="10" height="10" fill="#e2c9ad"/>
  <rect x="80" y="70" width="10" height="10" fill="#e6cdaf"/>
  <rect x="90" y="70" width="10" height="10" fill="#755f45"/>
  <rect x="120" y="70" width="10" height="10" fill="#755f45"/>
  <rect x="130" y="70" width="10" height="10" fill="#e6cdaf"/>
  <rect x="140" y="70" width="10" height="10" fill="#755f45"/>
  <rect x="160" y="70" width="10" height="10" fill="#755f45"/>
  <rect x="170" y="70" width="10" height="10" fill="#e6cdb1"/>
  <rect x="180" y="70" width="10" height="10" fill="#755f45"/>
  <rect x="70" y="80" width="10" height="10" fill="#755f45"/>
  <rect x="80" y="80" width="10" height="10" fill="#e5ccb0"/>
  <rect x="90" y="80" width="10" height="10" fill="#e6cdaf"/>
  <rect x="100" y="80" width="10" height="10" fill="#755f45"/>
  <rect x="120" y="80" width="10" height="10" fill="#755f45"/>
  <rect x="130" y="80" width="10" height="10" fill="#e6cdaf"/>
  <rect x="140" y="80" width="10" height="10" fill="#e3ccb2"/>
  <rect x="150" y="80" width="10" height="10" fill="#755f45"/>
  <rect x="160" y="80" width="10" height="10" fill="#ddc0a0"/>
  <rect x="170" y="80" width="10" height="10" fill="#e6cdaf"/>
  <rect x="180" y="80" width="10" height="10" fill="#755f45"/>
  <rect x="30" y="90" width="40" height="10" fill="#755f45"/>
  <rect x="80" y="90" width="10" height="10" fill="#755f45"/>
  <rect x="90" y="90" width="10" height="10" fill="#e1c9ae"/>
  <rect x="100" y="90" width="10" height="10" fill="#e6cdaf"/>
  <rect x="110" y="90" width="10" height="10" fill="#755f45"/>
  <rect x="120" y="90" width="20" height="10" fill="#e6cdaf"/>
  <rect x="140" y="90" width="10" height="10" fill="#e2cbb1"/>
  <rect x="150" y="90" width="10" height="10" fill="#755f45"/>
  <rect x="160" y="90" width="10" height="10" fill="#dcbf9f"/>
  <rect x="170" y="90" width="10" height="10" fill="#e6cdaf"/>
  <rect x="180" y="90" width="10" height="10" fill="#755f45"/>
  <rect x="20" y="100" width="10" height="10" fill="#755f45"/>
  <rect x="30" y="100" width="10" height="10" fill="#e8ccac"/>
  <rect x="40" y="100" width="10" height="10" fill="#e4cbad"/>
  <rect x="50" y="100" width="10" height="10" fill="#e7ceb0"/>
  <rect x="60" y="100" width="10" height="10" fill="#e5ccae"/>
  <rect x="70" y="100" width="10" height="10" fill="#755f45"/>
  <rect x="90" y="100" width="10" height="10" fill="#755f45"/>
  <rect x="100" y="100" width="10" height="10" fill="#e6cdaf"/>
  <rect x="110" y="100" width="10" height="10" fill="#755f45"/>
  <rect x="120" y="100" width="20" height="10" fill="#e6cdaf"/>
  <rect x="140" y="100" width="10" height="10" fill="#e4ccb0"/>
  <rect x="150" y="100" width="10" height="10" fill="#e2c9ad"/>
  <rect x="160" y="100" width="10" height="10" fill="#e4cbaf"/>
  <rect x="170" y="100" width="10" height="10" fill="#e6cbab"/>
  <rect x="180" y="100" width="10" height="10" fill="#755f45"/>
  <rect x="20" y="110" width="40" height="10" fill="#755f45"/>
  <rect x="60" y="110" width="10" height="10" fill="#e2caae"/>
  <rect x="70" y="110" width="10" height="10" fill="#e6cdaf"/>
  <rect x="80" y="110" width="20" height="10" fill="#755f45"/>
  <rect x="100" y="110" width="10" height="10" fill="#e5ccb0"/>
  <rect x="110" y="110" width="40" height="10" fill="#e6cdaf"/>
  <rect x="150" y="110" width="10" height="10" fill="#e0c7a9"/>
  <rect x="160" y="110" width="10" height="10" fill="#b29a7f"/>
  <rect x="170" y="110" width="10" height="10" fill="#755f45"/>
  <rect x="60" y="120" width="10" height="10" fill="#755f45"/>
  <rect x="70" y="120" width="10" height="10" fill="#e5caab"/>
  <rect x="80" y="120" width="10" height="10" fill="#e6cdaf"/>
  <rect x="90" y="120" width="10" height="10" fill="#e7cdae"/>
  <rect x="100" y="120" width="50" height="10" fill="#e6cdaf"/>
  <rect x="150" y="120" width="10" height="10" fill="#e4cdb3"/>
  <rect x="160" y="120" width="10" height="10" fill="#755f45"/>
  <rect x="60" y="130" width="10" height="10" fill="#755f45"/>
  <rect x="70" y="130" width="10" height="10" fill="#e6cdaf"/>
  <rect x="80" y="130" width="10" height="10" fill="#e8ceaf"/>
  <rect x="90" y="130" width="10" height="10" fill="#e6cbab"/>
  <rect x="100" y="130" width="50" height="10" fill="#e6cdaf"/>
  <rect x="150" y="130" width="10" height="10" fill="#e1c9ae"/>
  <rect x="160" y="130" width="10" height="10" fill="#755f45"/>
  <rect x="60" y="140" width="10" height="10" fill="#755f45"/>
  <rect x="70" y="140" width="10" height="10" fill="#d8bb99"/>
  <rect x="80" y="140" width="70" height="10" fill="#e6cdaf"/>
  <rect x="150" y="140" width="10" height="10" fill="#e0cab0"/>
  <rect x="160" y="140" width="10" height="10" fill="#755f45"/>
  <rect x="60" y="150" width="10" height="10" fill="#755f45"/>
  <rect x="70" y="150" width="10" height="10" fill="#d8bb99"/>
  <rect x="80" y="150" width="70" height="10" fill="#e6cdaf"/>
  <rect x="150" y="150" width="10" height="10" fill="#e0cab0"/>
  <rect x="160" y="150" width="10" height="10" fill="#755f45"/>
  <rect x="10" y="160" width="20" height="10" fill="#755f45"/>
  <rect x="60" y="160" width="10" height="10" fill="#755f45"/>
  <rect x="70" y="160" width="10" height="10" fill="#d6b896"/>
  <rect x="80" y="160" width="10" height="10" fill="#e5ccae"/>
  <rect x="90" y="160" width="50" height="10" fill="#e6cdaf"/>
  <rect x="140" y="160" width="10" height="10" fill="#e4ccb1"/>
  <rect x="150" y="160" width="10" height="10" fill="#deccb6"/>
  <rect x="160" y="160" width="10" height="10" fill="#755f45"/>
  <rect x="10" y="170" width="10" height="10" fill="#755f45"/>
  <rect x="20" y="170" width="10" height="10" fill="#e6cdaf"/>
  <rect x="30" y="170" width="30" height="10" fill="#755f45"/>
  <rect x="60" y="170" width="20" height="10" fill="#e4ccb0"/>
  <rect x="80" y="170" width="20" height="10" fill="#e6cdaf"/>
  <rect x="100" y="170" width="10" height="10" fill="#e8cfb1"/>
  <rect x="110" y="170" width="30" height="10" fill="#e6cdaf"/>
  <rect x="140" y="170" width="10" height="10" fill="#e3ccb1"/>
  <rect x="150" y="170" width="10" height="10" fill="#755f45"/>
  <rect x="10" y="180" width="10" height="10" fill="#755f45"/>
  <rect x="20" y="180" width="10" height="10" fill="#e3cbb0"/>
  <rect x="30" y="180" width="10" height="10" fill="#dfc5a6"/>
  <rect x="40" y="180" width="10" height="10" fill="#e4ccb0"/>
  <rect x="50" y="180" width="10" height="10" fill="#e4ccb1"/>
  <rect x="60" y="180" width="10" height="10" fill="#e4ccb0"/>
  <rect x="70" y="180" width="10" height="10" fill="#e3caae"/>
  <rect x="80" y="180" width="10" height="10" fill="#e7ccad"/>
  <rect x="90" y="180" width="10" height="10" fill="#e6cdaf"/>
  <rect x="100" y="180" width="10" height="10" fill="#e2c9ab"/>
  <rect x="110" y="180" width="30" height="10" fill="#e6cdaf"/>
  <rect x="140" y="180" width="10" height="10" fill="#e3ccb1"/>
  <rect x="150" y="180" width="10" height="10" fill="#755f45"/>
  <rect x="20" y="190" width="50" height="10" fill="#755f45"/>
  <rect x="70" y="190" width="10" height="10" fill="#e7ccad"/>
  <rect x="80" y="190" width="10" height="10" fill="#e4cdb3"/>
  <rect x="90" y="190" width="10" height="10" fill="#e7ccad"/>
  <rect x="100" y="190" width="40" height="10" fill="#e6cdaf"/>
  <rect x="140" y="190" width="10" height="10" fill="#e2cbb1"/>
  <rect x="150" y="190" width="10" height="10" fill="#755f45"/>
  <rect x="70" y="200" width="20" height="10" fill="#755f45"/>
  <rect x="90" y="200" width="10" height="10" fill="#e4ccb1"/>
  <rect x="100" y="200" width="40" height="10" fill="#e6cdaf"/>
  <rect x="140" y="200" width="10" height="10" fill="#e2cbb0"/>
  <rect x="150" y="200" width="10" height="10" fill="#755f45"/>
  <rect x="90" y="210" width="10" height="10" fill="#755f45"/>
  <rect x="100" y="210" width="10" height="10" fill="#cab195"/>
  <rect x="110" y="210" width="30" height="10" fill="#e6cdaf"/>
  <rect x="140" y="210" width="10" height="10" fill="#e4ccb0"/>
  <rect x="150" y="210" width="10" height="10" fill="#eedcc8"/>
  <rect x="160" y="210" width="10" height="10" fill="#755f45"/>
  <rect x="90" y="220" width="10" height="10" fill="#755f45"/>
  <rect x="100" y="220" width="10" height="10" fill="#d0b799"/>
  <rect x="110" y="220" width="30" height="10" fill="#e6cdaf"/>
  <rect x="140" y="220" width="10" height="10" fill="#e5cbac"/>
  <rect x="150" y="220" width="10" height="10" fill="#e1ccb5"/>
  <rect x="160" y="220" width="10" height="10" fill="#755f45"/>
  <rect x="90" y="230" width="10" height="10" fill="#755f45"/>
  <rect x="100" y="230" width="10" height="10" fill="#ceb69a"/>
  <rect x="110" y="230" width="10" height="10" fill="#e3cbaf"/>
  <rect x="120" y="230" width="30" height="10" fill="#e6cdaf"/>
  <rect x="150" y="230" width="10" height="10" fill="#dfc9af"/>
  <rect x="160" y="230" width="10" height="10" fill="#755f45"/>
  <rect x="100" y="240" width="10" height="10" fill="#755f45"/>
  <rect x="110" y="240" width="10" height="10" fill="#e9d0b2"/>
  <rect x="120" y="240" width="30" height="10" fill="#e6ccae"/>
  <rect x="150" y="240" width="10" height="10" fill="#e0c9af"/>
  <rect x="160" y="240" width="10" height="10" fill="#755f45"/>
  <rect x="110" y="250" width="50" height="10" fill="#755f45"/>
  <rect x="320" y="20" width="10" height="10" fill="#755f45"/>
  <rect x="310" y="30" width="10" height="10" fill="#755f45"/>
  <rect x="320" y="30" width="10" height="10" fill="#e6cdaf"/>
  <rect x="330" y="30" width="10" height="10" fill="#755f45"/>
  <rect x="380" y="30" width="10" height="10" fill="#755f45"/>
  <rect x="280" y="40" width="10" height="10" fill="#755f45"/>
  <rect x="310" y="40" width="10" height="10" fill="#755f45"/>
  <rect x="320" y="40" width="20" height="10" fill="#e6cdaf"/>
  <rect x="340" y="40" width="10" height="10" fill="#755f45"/>
  <rect x="370" y="40" width="10" height="10" fill="#755f45"/>
  <rect x="380" y="40" width="10" height="10" fill="#b9a48c"/>
  <rect x="390" y="40" width="10" height="10" fill="#755f45"/>
  <rect x="270" y="50" width="10" height="10" fill="#755f45"/>
  <rect x="280" y="50" width="10" height="10" fill="#e6cdaf"/>
  <rect x="290" y="50" width="10" height="10" fill="#755f45"/>
  <rect x="320" y="50" width="10" height="10" fill="#755f45"/>
  <rect x="330" y="50" width="20" height="10" fill="#e6cdaf"/>
  <rect x="350" y="50" width="10" height="10" fill="#755f45"/>
  <rect x="380" y="50" width="10" height="10" fill="#755f45"/>
  <rect x="390" y="50" width="10" height="10" fill="#e7ceb0"/>
  <rect x="400" y="50" width="10" height="10" fill="#755f45"/>
  <rect x="270" y="60" width="10" height="10" fill="#755f45"/>
  <rect x="280" y="60" width="10" height="10" fill="#e5cbad"/>
  <rect x="290" y="60" width="10" height="10" fill="#e6cdaf"/>
  <rect x="300" y="60" width="10" height="10" fill="#755f45"/>
  <rect x="330" y="60" width="10" height="10" fill="#755f45"/>
  <rect x="340" y="60" width="10" height="10" fill="#e6cdaf"/>
  <rect x="350" y="60" width="10" height="10" fill="#e4cdb2"/>
  <rect x="360" y="60" width="10" height="10" fill="#755f45"/>
  <rect x="380" y="60" width="10" height="10" fill="#755f45"/>
  <rect x="390" y="60" width="10" height="10" fill="#e6cdb1"/>
  <rect x="400" y="60" width="10" height="10" fill="#755f45"/>
  <rect x="280" y="70" width="10" height="10" fill="#755f45"/>
  <rect x="290" y="70" width="10" height="10" fill="#e2c9ad"/>
  <rect x="300" y="70" width="10" height="10" fill="#e6cdaf"/>
  <rect x="310" y="70" width="10" height="10" fill="#755f45"/>
  <rect x="340" y="70" width="10" height="10" fill="#755f45"/>
  <rect x="350" y="70" width="10" height="10" fill="#e6cdaf"/>
  <rect x="360" y="70" width="10" height="10" fill="#755f45"/>
  <rect x="380" y="70" width="10" height="10" fill="#755f45"/>
  <rect x="390" y="70" width="10" height="10" fill="#e6cdb1"/>
  <rect x="400" y="70" width="10" height="10" fill="#755f45"/>
  <rect x="290" y="80" width="10" height="10" fill="#755f45"/>
  <rect x="300" y="80" width="10" height="10" fill="#e5ccb0"/>
  <rect x="310" y="80" width="10" height="10" fill="#e6cdaf"/>
  <rect x="320" y="80" width="10" height="10" fill="#755f45"/>
  <rect x="340" y="80" width="10" height="10" fill="#755f45"/>
  <rect x="350" y="80" width="10" height="10" fill="#e6cdaf"/>
  <rect x="360" y="80" width="10" height="10" fill="#e3ccb2"/>
  <rect x="370" y="80" width="10" height="10" fill="#755f45"/>
  <rect x="380" y="80" width="10" height="10" fill="#ddc0a0"/>
  <rect x="390" y="80" width="10" height="10" fill="#e6cdaf"/>
  <rect x="400" y="80" width="10" height="10" fill="#755f45"/>
  <rect x="300" y="90" width="10" height="10" fill="#755f45"/>
  <rect x="310" y="90" width="10" height="10" fill="#e1c9ae"/>
  <rect x="320" y="90" width="10" height="10" fill="#e6cdaf"/>
  <rect x="330" y="90" width="10" height="10" fill="#755f45"/>
  <rect x="340" y="90" width="20" height="10" fill="#e6cdaf"/>
  <rect x="360" y="90" width="10" height="10" fill="#e2cbb1"/>
  <rect x="370" y="90" width="10" height="10" fill="#755f45"/>
  <rect x="380" y="90" width="10" height="10" fill="#dcbf9f"/>
  <rect x="390" y="90" width="10" height="10" fill="#e6cdaf"/>
  <rect x="400" y="90" width="10" height="10" fill="#755f45"/>
  <rect x="250" y="100" width="50" height="10" fill="#755f45"/>
  <rect x="310" y="100" width="10" height="10" fill="#755f45"/>
  <rect x="320" y="100" width="10" height="10" fill="#e6cdaf"/>
  <rect x="330" y="100" width="10" height="10" fill="#755f45"/>
  <rect x="340" y="100" width="20" height="10" fill="#e6cdaf"/>
  <rect x="360" y="100" width="10" height="10" fill="#e4ccb0"/>
  <rect x="370" y="100" width="10" height="10" fill="#e2c9ad"/>
  <rect x="380" y="100" width="10" height="10" fill="#e4cbaf"/>
  <rect x="390" y="100" width="10" height="10" fill="#e6cbab"/>
  <rect x="400" y="100" width="10" height="10" fill="#755f45"/>
  <rect x="240" y="110" width="10" height="10" fill="#755f45"/>
  <rect x="250" y="110" width="10" height="10" fill="#e8ccac"/>
  <rect x="260" y="110" width="10" height="10" fill="#e4cbad"/>
  <rect x="270" y="110" width="10" height="10" fill="#e7ceb0"/>
  <rect x="280" y="110" width="10" height="10" fill="#e5ccae"/>
  <rect x="290" y="110" width="10" height="10" fill="#e6cdaf"/>
  <rect x="300" y="110" width="20" height="10" fill="#755f45"/>
  <rect x="320" y="110" width="10" height="10" fill="#e5ccb0"/>
  <rect x="330" y="110" width="40" height="10" fill="#e6cdaf"/>
  <rect x="370" y="110" width="10" height="10" fill="#e0c7a9"/>
  <rect x="380" y="110" width="10" height="10" fill="#b29a7f"/>
  <rect x="390" y="110" width="10" height="10" fill="#755f45"/>
  <rect x="230" y="120" width="10" height="10" fill="#755f45"/>
  <rect x="240" y="120" width="10" height="10" fill="#d3bca2"/>
  <rect x="250" y="120" width="10" height="10" fill="#e6ccae"/>
  <rect x="260" y="120" width="20" height="10" fill="#755f45"/>
  <rect x="280" y="120" width="10" height="10" fill="#e2caae"/>
  <rect x="290" y="120" width="20" height="10" fill="#e6cdaf"/>
  <rect x="310" y="120" width="10" height="10" fill="#e7cdae"/>
  <rect x="320" y="120" width="50" height="10" fill="#e6cdaf"/>
  <rect x="370" y="120" width="10" height="10" fill="#e4cdb3"/>
  <rect x="380" y="120" width="10" height="10" fill="#755f45"/>
  <rect x="230" y="130" width="10" height="10" fill="#755f45"/>
  <rect x="240" y="130" width="10" height="10" fill="#d0baa0"/>
  <rect x="250" y="130" width="10" height="10" fill="#755f45"/>
  <rect x="280" y="130" width="10" height="10" fill="#755f45"/>
  <rect x="290" y="130" width="10" height="10" fill="#e5caab"/>
  <rect x="300" y="130" width="10" height="10" fill="#e8ceaf"/>
  <rect x="310" y="130" width="10" height="10" fill="#e6cbab"/>
  <rect x="320" y="130" width="50" height="10" fill="#e6cdaf"/>
  <rect x="370" y="130" width="10" height="10" fill="#e1c9ae"/>
  <rect x="380" y="130" width="10" height="10" fill="#755f45"/>
  <rect x="240" y="140" width="10" height="10" fill="#755f45"/>
  <rect x="280" y="140" width="10" height="10" fill="#755f45"/>
  <rect x="290" y="140" width="10" height="10" fill="#d8bb99"/>
  <rect x="300" y="140" width="70" height="10" fill="#e6cdaf"/>
  <rect x="370" y="140" width="10" height="10" fill="#e0cab0"/>
  <rect x="380" y="140" width="10" height="10" fill="#755f45"/>
  <rect x="230" y="150" width="20" height="10" fill="#755f45"/>
  <rect x="280" y="150" width="10" height="10" fill="#755f45"/>
  <rect x="290" y="150" width="10" height="10" fill="#d8bb99"/>
  <rect x="300" y="150" width="70" height="10" fill="#e6cdaf"/>
  <rect x="370" y="150" width="10" height="10" fill="#e0cab0"/>
  <rect x="380" y="150" width="10" height="10" fill="#755f45"/>
  <rect x="230" y="160" width="10" height="10" fill="#755f45"/>
  <rect x="240" y="160" width="10" height="10" fill="#e6cdaf"/>
  <rect x="250" y="160" width="10" height="10" fill="#755f45"/>
  <rect x="280" y="160" width="10" height="10" fill="#755f45"/>
  <rect x="290" y="160" width="10" height="10" fill="#d6b896"/>
  <rect x="300" y="160" width="10" height="10" fill="#e5ccae"/>
  <rect x="310" y="160" width="50" height="10" fill="#e6cdaf"/>
  <rect x="360" y="160" width="10" height="10" fill="#e4ccb1"/>
  <rect x="370" y="160" width="10" height="10" fill="#deccb6"/>
  <rect x="380" y="160" width="10" height="10" fill="#755f45"/>
  <rect x="230" y="170" width="10" height="10" fill="#755f45"/>
  <rect x="240" y="170" width="10" height="10" fill="#e3cbb0"/>
  <rect x="250" y="170" width="10" height="10" fill="#dfc5a6"/>
  <rect x="260" y="170" width="20" height="10" fill="#755f45"/>
  <rect x="280" y="170" width="20" height="10" fill="#e4ccb0"/>
  <rect x="300" y="170" width="20" height="10" fill="#e6cdaf"/>
  <rect x="320" y="170" width="10" height="10" fill="#e8cfb1"/>
  <rect x="330" y="170" width="30" height="10" fill="#e6cdaf"/>
  <rect x="360" y="170" width="10" height="10" fill="#e3ccb1"/>
  <rect x="370" y="170" width="10" height="10" fill="#755f45"/>
  <rect x="240" y="180" width="10" height="10" fill="#755f45"/>
  <rect x="250" y="180" width="10" height="10" fill="#e8cdae"/>
  <rect x="260" y="180" width="10" height="10" fill="#e4ccb0"/>
  <rect x="270" y="180" width="10" height="10" fill="#e4ccb1"/>
  <rect x="280" y="180" width="10" height="10" fill="#e4ccb0"/>
  <rect x="290" y="180" width="10" height="10" fill="#e3caae"/>
  <rect x="300" y="180" width="10" height="10" fill="#e7ccad"/>
  <rect x="310" y="180" width="10" height="10" fill="#e6cdaf"/>
  <rect x="320" y="180" width="10" height="10" fill="#e2c9ab"/>
  <rect x="330" y="180" width="30" height="10" fill="#e6cdaf"/>
  <rect x="360" y="180" width="10" height="10" fill="#e3ccb1"/>
  <rect x="370" y="180" width="10" height="10" fill="#755f45"/>
  <rect x="250" y="190" width="40" height="10" fill="#755f45"/>
  <rect x="290" y="190" width="10" height="10" fill="#e7ccad"/>
  <rect x="300" y="190" width="10" height="10" fill="#e4cdb3"/>
  <rect x="310" y="190" width="10" height="10" fill="#e7ccad"/>
  <rect x="320" y="190" width="40" height="10" fill="#e6cdaf"/>
  <rect x="360" y="190" width="10" height="10" fill="#e2cbb1"/>
  <rect x="370" y="190" width="10" height="10" fill="#755f45"/>
  <rect x="290" y="200" width="20" height="10" fill="#755f45"/>
  <rect x="310" y="200" width="10" height="10" fill="#e4ccb1"/>
  <rect x="320" y="200" width="40" height="10" fill="#e6cdaf"/>
  <rect x="360" y="200" width="10" height="10" fill="#e2cbb0"/>
  <rect x="370" y="200" width="10" height="10" fill="#755f45"/>
  <rect x="310" y="210" width="10" height="10" fill="#755f45"/>
  <rect x="320" y="210" width="10" height="10" fill="#cab195"/>
  <rect x="330" y="210" width="30" height="10" fill="#e6cdaf"/>
  <rect x="360" y="210" width="10" height="10" fill="#e4ccb0"/>
  <rect x="370" y="210" width="10" height="10" fill="#eedcc8"/>
  <rect x="380" y="210" width="10" height="10" fill="#755f45"/>
  <rect x="310" y="220" width="10" height="10" fill="#755f45"/>
  <rect x="320" y="220" width="10" height="10" fill="#d0b799"/>
  <rect x="330" y="220" width="30" height="10" fill="#e6cdaf"/>
  <rect x="360" y="220" width="10" height="10" fill="#e5cbac"/>
  <rect x="370" y="220" width="10" height="10" fill="#e1ccb5"/>
  <rect x="380" y="220" width="10" height="10" fill="#755f45"/>
  <rect x="310" y="230" width="10" height="10" fill="#755f45"/>
  <rect x="320" y="230" width="10" height="10" fill="#ceb69a"/>
  <rect x="330" y="230" width="10" height="10" fill="#e3cbaf"/>
  <rect x="340" y="230" width="30" height="10" fill="#e6cdaf"/>
  <rect x="370" y="230" width="10" height="10" fill="#dfc9af"/>
  <rect x="380" y="230" width="10" height="10" fill="#755f45"/>
  <rect x="320" y="240" width="10" height="10" fill="#755f45"/>
  <rect x="330" y="240" width="10" height="10" fill="#e9d0b2"/>
  <rect x="340" y="240" width="30" height="10" fill="#e6ccae"/>
  <rect x="370" y="240" width="10" height="10" fill="#e0c9af"/>
  <rect x="380" y="240" width="10" height="10" fill="#755f45"/>
  <rect x="330" y="250" width="50" height="10" fill="#755f45"/>
</svg>